# xmcd
#
# Track frame offsets:
#	150
#	17032
#	29335
#	47108
#	61263
#	76054
#	93720
#	111892
#	126247
#	142616
#	154759
#	170817
#
# Disc length: 2464 seconds
#
# Revision: 1
# Processed by: cddbd v1.5.2PL0 Copyright (c) Steve Scherf et al.
# Submitted via: EZCDAudioConverter 7.1.4.1
#
DISCID=98099e0c
DTITLE=B B  Driftwood - Southward Bound
DYEAR=2012
DGENRE=Blues
TTITLE0=B B  Driftwood - Southward Bound
TTITLE1=B B  Driftwood - She Shines
TTITLE2=B B  Driftwood - Adrift
TTITLE3=B B  Driftwood - Sweet Elizabeth
TTITLE4=B B  Driftwood - A Way to Celebrate
TTITLE5=B B  Driftwood - Close to the Sun
TTITLE6=B B  Driftwood and Eric Bibb (12 string guitar) - Strange How Things Can
TTITLE6=Turn Around
TTITLE7=B B  Driftwood - Indian Summer
TTITLE8=B B  Driftwood - Love Must Prevail
TTITLE9=B B  Driftwood - Shady Tree
TTITLE10=B B  Driftwood - Old Crazy Heart
TTITLE11=B B  Driftwood - Aliki Moonlight
EXTD=
EXTT0=
EXTT1=
EXTT2=
EXTT3=
EXTT4=
EXTT5=
EXTT6=
EXTT7=
EXTT8=
EXTT9=
EXTT10=
EXTT11=
PLAYORDER=
